# xmcd
#
# Track frame offsets:
#	150
#	9954
#	30549
#	43265
#	57013
#	69103
#	82731
#	95255
#	106025
#	116530
#	132207
#	155557
#	171366
#	185483
#	198178
#	214869
#	235631
#
# Disc length: 3306 seconds
#
# Revision: 0
# Processed by: cddbd v1.5.2PL0 Copyright (c) Steve Scherf et al.
# Submitted via: EZCDAudioConverter 5.1.1.1
#
DISCID=cc0ce811
DTITLE=Roberto Murolo - 5
DYEAR=1900
DGENRE=
TTITLE0=Si tu, Nenna, M'ammave nautanno
TTITLE1=Serenata napulitana
TTITLE2=Serenatella a 'na cumpagna e scola
TTITLE3=Simmo e Napule paisa'
TTITLE4=So' le sorbe e le nespule amare
TTITLE5=Surriento d'e 'nnamurate
TTITLE6=Suspiranno
TTITLE7=Tamburriata nera
TTITLE8=Tarantelluccia
TTITLE9=Te voglio bene assaie
TTITLE10=Tiritomba
TTITLE11=Torna a Surriento
TTITLE12=Vierno
TTITLE13=Vint'anne
TTITLE14=Voce 'e notte
TTITLE15=Zampugnaro 'nnamurato
TTITLE16=Zompallar'llirà
EXTD=
EXTT0=
EXTT1=
EXTT2=
EXTT3=
EXTT4=
EXTT5=
EXTT6=
EXTT7=
EXTT8=
EXTT9=
EXTT10=
EXTT11=
EXTT12=
EXTT13=
EXTT14=
EXTT15=
EXTT16=
PLAYORDER=
